<svg width="56" height="60" viewBox="0 0 56 60" fill="none" xmlns="http://www.w3.org/2000/svg">
<path d="M35.0006 56.8839H36.3794V59.3571H8.09329C7.41072 59.3571 5.43074 57.2582 5.43062 56.5747C5.43062 54.8937 7.16946 53.7923 9.2123 53.7923H10.4472V41.105C9.87079 39.9577 7.97752 35.9943 7.97752 33.3882C7.97752 29.4836 9.0166 27.7494 9.77635 26.4814L9.77679 26.4807C10.2303 25.7248 10.4473 25.3358 10.4473 24.7321V24.0969C10.4497 22.0005 10.4497 20.1891 10.2109 19.8413H10.2085C10.1795 19.8413 9.95287 19.7857 9.21242 19.7857C5.86961 19.7857 0.568359 18.1072 0.568359 13.6027C0.568359 11.9821 2.08538 10.905 3.42401 9.95576C3.88465 9.62976 4.33082 9.323 4.63472 9.01868C4.8907 8.76221 5.18714 8.31807 5.50028 7.84889L5.50784 7.83757C6.36406 6.54783 7.43005 4.94646 9.21242 4.94646C9.59839 4.94646 10.4473 3.15195 10.4473 1.23664C10.4473 0.55311 10.9996 0 11.6822 0C15.447 0 17.1136 3.75573 17.6321 5.27003C18.8815 5.86661 21.5611 7.56455 21.5611 11.1294V23.4955C21.5611 25.0461 29.012 26.2584 31.2357 28.2439C32.1352 29.0481 32.9601 29.7872 33.5751 30.4031C33.9825 30.8111 34.4536 31.2258 34.9552 31.6673L35.0006 31.7073C37.6777 34.0621 37.6143 39.3999 37.6143 45.7544V50.7009C37.6143 53.124 36.6085 55.3109 35.0006 56.8839Z" fill="#EA5342"/>
<path d="M54.0234 22.2588H52.1873C50.7136 22.2588 49.2998 21.6728 48.2579 20.629L45.9561 18.3239C44.9137 17.2805 43.5006 16.6942 42.0267 16.6942H33.2148C32.3338 16.7675 31.5095 17.0193 30.5671 17.6473L30.5548 17.6573C29.8882 18.1047 25.9349 22.1293 25.3651 22.6999C22.7355 25.3333 23.4889 32.5758 28.7034 33.3108C32.1385 33.7908 36.9194 31.1375 36.9194 27.8235C36.9194 25.4084 38.0194 25.505 38.7717 22.969C37.6697 23.6128 36.9194 24.7963 36.9194 26.1629V27.8235C37.0354 29.7365 33.3887 32.6927 31.1312 33.91C30.9304 33.91 29.1077 35.2015 28.9061 35.1852C25.5042 37.1683 19.5126 40.6905 17.1981 42.2425C16.9896 42.3734 16.793 42.5151 16.5963 42.6618C13.9341 44.6472 12.345 47.9987 12.979 51.7064C13.1047 52.4409 13.3467 53.1374 13.6428 53.8064L13.6216 53.7923H8.2091C6.67471 53.7923 5.43066 55.0381 5.43066 56.5747C5.43066 58.1112 6.67471 59.357 8.2091 59.357H31.3352C32.1777 59.357 32.8845 58.7986 33.1277 58.0488C33.7296 56.1938 30.9476 53.9654 28.4671 53.8159C29.1134 52.715 29.8577 51.9363 31.1086 51.9363C31.1086 49.9712 34.8259 50.3792 33.4466 48.9812H31.6521C33.3051 50.6561 30.5523 47.5416 30.5523 50.0825C30.5523 50.7278 31.2524 51.338 31.1086 51.9363C32.5747 51.9363 34.493 51.9363 35.0673 51.9363V57.5019C35.0673 58.5263 35.8967 59.3568 36.9196 59.3568H40.6242H43.8109C45.2319 59.3568 46.1493 57.8053 45.4321 56.5771C44.5784 55.1144 43.0707 54.081 41.3101 53.8613L41.722 50.5613C43.9482 49.1923 45.5894 46.9185 46.0407 44.286C46.672 40.602 45.106 37.2753 42.4763 35.285V31.5331H48.0332C50.071 31.5331 52.5956 30.1015 53.6439 28.3517L55.6115 25.0676C56.3523 23.8315 55.4632 22.2588 54.0234 22.2588Z" fill="#FBBA3C"/>
</svg>
