<svg width="108" height="61" viewBox="0 0 108 61" fill="none" xmlns="http://www.w3.org/2000/svg">
<g filter="url(#filter0_d)">
<path d="M11.4165 22.5264C11.4165 23.1739 11.5784 23.7675 11.9021 24.3071C12.2259 24.8197 12.3878 25.2379 12.3878 25.5617C12.3878 25.8585 12.3068 26.1283 12.1449 26.3711C12.01 26.6139 11.8212 26.7353 11.5784 26.7353C11.1197 26.7353 10.742 26.3441 10.4452 25.5617C10.1484 24.7793 10 23.9564 10 23.093C10 21.7979 10.4722 20.6378 11.4165 19.6125C12.3878 18.5872 13.6154 18.0746 15.0993 18.0746C16.0976 18.0746 16.8396 18.5603 17.3252 19.5316C17.8378 20.4759 18.0941 21.5551 18.0941 22.7692C18.0941 23.9833 18.0537 25.13 17.9727 26.2092C17.9188 27.2615 17.8648 28.0844 17.8109 28.6779C17.7569 29.2445 17.649 30.1619 17.4871 31.4299C17.3252 32.671 17.2173 33.5344 17.1633 34.0201C19.3218 34.0201 21.5881 32.9274 23.9624 30.7419C24.2862 26.8568 24.7313 23.8214 25.2979 21.636C25.8915 19.4236 26.4851 17.8723 27.0786 16.9819C27.6722 16.0915 28.3063 15.6464 28.9808 15.6464C29.6823 15.6464 30.2489 15.9566 30.6805 16.5772C31.1392 17.1977 31.3685 17.9397 31.3685 18.8031C31.3685 21.9868 29.9521 25.4268 27.1191 29.1231C26.9572 31.2546 26.8763 33.2241 26.8763 35.0318C26.8763 36.8126 27.1326 38.5528 27.6452 40.2526C28.1848 41.9254 28.4547 42.8562 28.4547 43.045C28.4547 43.2609 28.3063 43.4228 28.0095 43.5307C27.7127 43.6656 27.3889 43.733 27.0382 43.733C26.0939 43.733 25.3249 43.4902 24.7313 43.0046C24.4346 42.7618 24.1917 41.9388 24.0029 40.5359C23.814 39.1329 23.7196 37.8243 23.7196 36.6102C23.7196 35.3691 23.76 34.0336 23.841 32.6036C21.4397 34.6541 19.1599 35.7198 17.0014 35.8008C16.9745 36.1785 16.9475 36.8126 16.9205 37.7029C16.8935 38.5663 16.853 39.2138 16.7991 39.6455C16.7451 40.0502 16.6372 40.5224 16.4753 41.062C16.2055 42.0603 15.558 42.5594 14.5327 42.5594C13.9122 42.5594 13.6019 42.0333 13.6019 40.981C13.6019 39.9018 13.7638 38.0402 14.0875 35.3961C12.8734 34.8834 12.2664 33.9796 12.2664 32.6845C12.2664 31.7402 12.5092 30.9443 12.9948 30.2968C13.4805 29.6223 14.0741 29.285 14.7755 29.285C15.0184 26.8028 15.1398 24.8872 15.1398 23.5382C15.1398 21.1099 14.7621 19.8958 14.0066 19.8958C12.2799 19.8958 11.4165 20.7727 11.4165 22.5264ZM30.0735 19.4911C30.0735 19.0864 30.006 18.7221 29.8711 18.3984C29.7632 18.0476 29.6148 17.8723 29.426 17.8723C28.6705 17.8723 27.9825 20.7996 27.3619 26.6544C29.1696 23.9024 30.0735 21.5146 30.0735 19.4911ZM14.6541 30.5801C14.2764 30.8499 14.0875 31.2141 14.0875 31.6728C14.0875 32.1314 14.1955 32.5092 14.4113 32.806L14.6541 30.5801Z" fill="#634203"/>
<path d="M32.4534 22.5669C32.4534 22.0812 32.7097 21.663 33.2223 21.3123C33.7349 20.9615 34.1936 20.7861 34.5983 20.7861C35.3268 20.7861 35.691 21.2043 35.691 22.0407C35.691 22.8771 35.4752 23.6056 35.0435 24.2262C34.6118 24.8197 34.0047 25.1165 33.2223 25.1165C32.7097 25.1165 32.4534 24.2666 32.4534 22.5669ZM33.627 42.5594C32.5748 42.5594 31.7788 42.3436 31.2392 41.9119C31.0504 41.723 30.9559 41.0485 30.9559 39.8883C30.9559 38.7282 31.0369 36.7991 31.1988 34.101C31.3876 31.376 31.5495 29.9055 31.6844 29.6897C31.8193 29.4739 32.2375 29.0692 32.939 28.4756C33.6405 27.882 34.1801 27.5852 34.5578 27.5852C34.9625 27.5852 35.1649 28.0979 35.1649 29.1231C35.1649 29.3929 35.0839 29.919 34.9221 30.7015C34.7872 31.4839 34.6253 32.0505 34.4364 32.4012C34.0857 33.2916 33.9103 35.6254 33.9103 39.4027C33.9103 40.1312 33.9912 40.4954 34.1531 40.4954C34.6118 40.4684 35.2458 39.9018 36.0552 38.7956C36.8647 37.6624 37.6606 36.219 38.443 34.4653C39.2524 32.7115 39.7381 31.8347 39.9 31.8347C40.0888 31.8347 40.1833 31.9426 40.1833 32.1584C40.1833 32.9139 39.792 34.1145 39.0096 35.7603C36.8782 40.293 35.0839 42.5594 33.627 42.5594Z" fill="#634203"/>
<path d="M49.5646 42.5594C48.6472 42.5594 47.9322 42.357 47.4196 41.9523C47.2038 41.7365 47.0958 41.1699 47.0958 40.2526C47.0958 39.3352 47.1363 38.1346 47.2173 36.6507C46.4888 38.5933 45.7468 40.0637 44.9914 41.062C44.2359 42.0603 43.2781 42.5594 42.118 42.5594C40.9848 42.5594 40.0135 42.0603 39.2041 41.062C38.4216 40.0637 38.0304 38.4719 38.0304 36.2864C38.0304 34.101 38.6375 32.1719 39.8516 30.4991C41.0927 28.8263 42.7115 27.9899 44.7081 27.9899C45.6794 27.9899 46.6911 28.3677 47.7434 29.1231C48.1751 23.8619 48.5663 20.8941 48.917 20.2196C49.0789 19.9228 49.4566 19.4911 50.0502 18.9245C50.6708 18.3579 51.1834 18.0746 51.5881 18.0746C51.9928 18.0746 52.1952 18.7086 52.1952 19.9767C52.1952 21.4607 52.0603 22.7422 51.7905 23.8214C51.062 26.6004 50.6033 28.3677 50.4145 29.1231C50.0367 32.037 49.8479 35.4635 49.8479 39.4027C49.8479 40.1312 49.9288 40.4954 50.0907 40.4954C50.5763 40.4684 51.2239 39.9018 52.0333 38.7956C52.8427 37.6894 53.6386 36.2595 54.4211 34.5057C55.2305 32.725 55.7161 31.8347 55.878 31.8347C56.0669 31.8347 56.1613 31.9426 56.1613 32.1584C56.1613 32.9139 55.7701 34.1145 54.9876 35.7603C52.8562 40.293 51.0485 42.5594 49.5646 42.5594ZM44.4653 29.4469C43.7368 29.4469 43.0083 30.027 42.2798 31.1871C41.5514 32.3473 41.1871 33.6963 41.1871 35.2342C41.1871 36.7451 41.376 37.9862 41.7537 38.9575C42.1584 39.9288 42.6576 40.4144 43.2511 40.4144C44.4653 40.4144 45.8547 37.9862 47.4196 33.1297C47.5545 31.6458 47.622 30.7689 47.622 30.4991C46.8395 29.7976 45.7873 29.4469 44.4653 29.4469Z" fill="#634203"/>
<path d="M57.4788 31.7942L59.7047 31.5514C59.9205 31.5514 60.1094 31.6728 60.2713 31.9156C60.4332 32.1584 60.5141 32.4147 60.5141 32.6845C60.5141 32.9543 60.4197 33.8717 60.2308 35.4365C60.0689 37.0014 59.988 38.2425 59.988 39.1599C59.988 40.0502 60.0689 40.4954 60.2308 40.4954C60.6895 40.4684 61.3235 39.9018 62.1329 38.7956C62.9424 37.6624 63.7383 36.219 64.5207 34.4653C65.3301 32.7115 65.8158 31.8347 65.9777 31.8347C66.1665 31.8347 66.261 31.9426 66.261 32.1584C66.261 32.9139 65.8697 34.1145 65.0873 35.7603C62.9558 40.293 61.1616 42.5594 59.7047 42.5594C58.6525 42.5594 57.8565 42.3436 57.3169 41.9119C57.1281 41.723 57.0336 40.5494 57.0336 38.3909C57.0336 36.2325 57.263 34.3843 57.7216 32.8464C56.1568 32.8464 55.0641 32.3473 54.4435 31.349C54.1197 30.8364 53.9579 30.2563 53.9579 29.6088C53.9579 28.9612 54.0928 28.3946 54.3626 27.909C54.6324 27.4233 55.0101 27.1805 55.4957 27.1805C56.0084 27.1805 56.467 27.4503 56.8717 27.9899C57.3034 28.5026 57.5193 29.0826 57.5193 29.7302C57.5193 30.3777 57.3304 31.0252 56.9527 31.6728C57.0606 31.7537 57.236 31.7942 57.4788 31.7942Z" fill="#634203"/>
<path d="M64.2731 38.8361L64.516 34.3034C64.516 31.4165 64.6509 29.8381 64.9207 29.5683C65.1905 29.2985 65.6626 28.9073 66.3372 28.3946C67.0386 27.855 67.5378 27.5852 67.8346 27.5852C68.1583 27.5852 68.3607 27.6392 68.4416 27.7471C68.5226 27.855 68.563 28.0709 68.563 28.3946C68.563 29.5548 68.3067 30.7285 67.7941 31.9156C67.3894 34.3978 67.187 36.4348 67.187 38.0267C67.187 39.6185 67.3759 40.4144 67.7536 40.4144C68.4012 40.4144 69.1431 39.8479 69.9795 38.7147C70.8429 37.5545 71.7198 35.8547 72.6101 33.6154C72.6371 33.0218 72.6641 32.4012 72.6911 31.7537C72.718 31.0792 72.745 30.5936 72.772 30.2968C72.799 29.973 72.8125 29.7437 72.8125 29.6088C72.8395 29.4739 73.2172 29.1096 73.9457 28.5161C74.6741 27.8955 75.2272 27.5852 75.6049 27.5852C76.0097 27.5852 76.212 28.0979 76.212 29.1231C76.212 29.3929 76.1311 29.919 75.9692 30.7015C75.8343 31.4839 75.6724 32.0505 75.4835 32.4012C75.2677 34.3169 75.1193 35.9897 75.0384 37.4196C77.6824 34.074 79.0854 32.3068 79.2473 32.118C79.4362 31.9291 79.5981 31.8347 79.733 31.8347C80.0028 31.8347 80.1377 31.9696 80.1377 32.2394C80.1377 32.4012 80.0837 32.5766 79.9758 32.7655C79.1124 34.0336 77.4126 36.2595 74.8765 39.4432C74.7146 42.6538 74.6067 44.8393 74.5527 45.9994C74.4178 49.4259 73.9322 51.8272 73.0958 53.2032C72.2864 54.6062 70.8294 55.3077 68.7249 55.3077C67.8076 55.3077 66.9442 55.0244 66.1348 54.4578C65.3524 53.9182 64.9611 52.9604 64.9611 51.5844C64.9611 50.2353 65.4738 48.8459 66.499 47.4159C67.5513 45.9859 69.4534 43.787 72.2054 40.8192L72.4482 36.4078C71.5309 38.4314 70.627 39.9693 69.7367 41.0215C68.8463 42.0468 67.8615 42.5594 66.7823 42.5594C65.7031 42.5594 65.0151 42.2896 64.7183 41.75C64.4215 41.2104 64.2731 40.2391 64.2731 38.8361ZM72.084 42.7213C69.0082 46.0399 67.4703 48.6975 67.4703 50.694C67.4703 51.6114 67.6322 52.3668 67.956 52.9604C68.2797 53.5539 68.7249 53.8507 69.2915 53.8507C70.1549 53.8507 70.762 53.3786 71.1127 52.4343C71.4634 51.4899 71.7198 49.5743 71.8816 46.6874L72.084 42.7213Z" fill="#634203"/>
</g>
<g filter="url(#filter1_d)">
<path d="M88.1362 42.9002C88.0033 41.7892 87.7386 40.7245 87.342 39.7063C86.9468 38.6782 86.1434 37.0662 84.932 34.8702C84.0382 33.2604 83.4872 32.2353 83.2792 31.7949C82.9474 31.0965 82.7258 30.4689 82.6145 29.912C82.5031 29.3551 82.4865 28.8016 82.5645 28.2515C82.7095 27.23 83.169 26.4284 83.9429 25.8469C84.7182 25.2555 85.6068 25.0309 86.6087 25.173C87.6008 25.3138 88.415 25.7901 89.0513 26.6018C89.5345 27.2215 89.8791 28.0771 90.0849 29.1684C90.5735 28.0554 91.207 27.2635 91.9852 26.7927C92.7733 26.3234 93.5946 26.1494 94.4491 26.2706C95.4412 26.4114 96.2329 26.8695 96.8243 27.6448C97.4157 28.4201 97.6459 29.2694 97.5149 30.1927C97.3964 31.0277 97.0731 31.8585 96.5449 32.6854C96.0266 33.5137 95.084 34.5773 93.7173 35.8764C91.9566 37.5505 90.6895 38.8887 89.916 39.8912C89.1537 40.8853 88.5604 41.8883 88.1362 42.9002Z" fill="#634203"/>
</g>
<defs>
<filter id="filter0_d" x="0" y="0.646362" width="90.1377" height="59.6613" filterUnits="userSpaceOnUse" color-interpolation-filters="sRGB">
<feFlood flood-opacity="0" result="BackgroundImageFix"/>
<feColorMatrix in="SourceAlpha" type="matrix" values="0 0 0 0 0 0 0 0 0 0 0 0 0 0 0 0 0 0 127 0"/>
<feOffset dy="-5"/>
<feGaussianBlur stdDeviation="5"/>
<feColorMatrix type="matrix" values="0 0 0 0 0 0 0 0 0 0 0 0 0 0 0 0 0 0 0.15 0"/>
<feBlend mode="normal" in2="BackgroundImageFix" result="effect1_dropShadow"/>
<feBlend mode="normal" in="SourceGraphic" in2="effect1_dropShadow" result="shape"/>
</filter>
<filter id="filter1_d" x="72.5161" y="10.1317" width="35.0342" height="37.7685" filterUnits="userSpaceOnUse" color-interpolation-filters="sRGB">
<feFlood flood-opacity="0" result="BackgroundImageFix"/>
<feColorMatrix in="SourceAlpha" type="matrix" values="0 0 0 0 0 0 0 0 0 0 0 0 0 0 0 0 0 0 127 0"/>
<feOffset dy="-5"/>
<feGaussianBlur stdDeviation="5"/>
<feColorMatrix type="matrix" values="0 0 0 0 0 0 0 0 0 0 0 0 0 0 0 0 0 0 0.15 0"/>
<feBlend mode="normal" in2="BackgroundImageFix" result="effect1_dropShadow"/>
<feBlend mode="normal" in="SourceGraphic" in2="effect1_dropShadow" result="shape"/>
</filter>
</defs>
</svg>
