<svg width="72" height="48" viewBox="0 0 72 48" fill="none" xmlns="http://www.w3.org/2000/svg">
<path d="M39.546 33.6132H40.3608V35.0746H23.6463C23.2429 35.0746 22.0729 33.8344 22.0729 33.4305C22.0729 32.4372 23.1004 31.7864 24.3075 31.7864H25.0372V24.2893C24.6966 23.6114 23.5778 21.2693 23.5778 19.7294C23.5778 17.4221 24.1918 16.3974 24.6408 15.6481L24.6411 15.6477C24.909 15.201 25.0373 14.9712 25.0373 14.6144V14.2391C25.0387 13.0003 25.0387 11.9299 24.8976 11.7244H24.8961C24.879 11.7244 24.7451 11.6916 24.3076 11.6916C22.3323 11.6916 19.1997 10.6997 19.1997 8.03798C19.1997 7.08035 20.0961 6.44387 20.8871 5.88295C21.1593 5.69031 21.423 5.50905 21.6026 5.32922C21.7538 5.17767 21.929 4.91522 22.114 4.63797L22.1185 4.63129C22.6244 3.86917 23.2543 2.92291 24.3076 2.92291C24.5356 2.92291 25.0373 1.86252 25.0373 0.730744C25.0373 0.326838 25.3636 0 25.767 0C27.9916 0 28.9764 2.21929 29.2828 3.11411C30.0211 3.46663 31.6045 4.46996 31.6045 6.57649V13.8837C31.6045 14.8 36.0073 15.5163 37.3213 16.6896C37.8528 17.1648 38.3403 17.6015 38.7037 17.9655C38.9444 18.2065 39.2228 18.4516 39.5191 18.7125L39.546 18.7362C41.128 20.1276 41.0905 23.2817 41.0905 27.0367V29.9596C41.0905 31.3915 40.4961 32.6837 39.546 33.6132Z" fill="#EA5342"/>
<path d="M50.7867 13.1529H49.7017C48.8309 13.1529 47.9955 12.8067 47.3798 12.1899L46.0196 10.8278C45.4037 10.2112 44.5686 9.86475 43.6977 9.86475H38.4906C37.9701 9.90811 37.483 10.0569 36.9261 10.428L36.9188 10.4339C36.5249 10.6982 34.1889 13.0764 33.8522 13.4136C32.2983 14.9697 32.7435 19.2493 35.8248 19.6837C37.8547 19.9673 40.6797 18.3995 40.6797 16.4412C40.6797 15.0141 41.3297 15.0711 41.7743 13.5726C41.1231 13.9531 40.6797 14.6524 40.6797 15.4599V16.4412C40.7483 17.5716 38.5934 19.3185 37.2594 20.0378C37.1408 20.0378 36.0637 20.8009 35.9446 20.7912C33.9344 21.9631 30.3939 24.0444 29.0263 24.9615C28.9031 25.0388 28.7868 25.1226 28.6706 25.2093C27.0975 26.3824 26.1585 28.3629 26.5331 30.5538C26.6074 30.9878 26.7504 31.3994 26.9254 31.7947L26.9129 31.7864H23.7146C22.8079 31.7864 22.0728 32.5225 22.0728 33.4305C22.0728 34.3385 22.8079 35.0746 23.7146 35.0746H37.38C37.8778 35.0746 38.2955 34.7446 38.4392 34.3016C38.7949 33.2055 37.1509 31.8887 35.6852 31.8003C36.0671 31.1498 36.5069 30.6896 37.2461 30.6896C37.2461 29.5285 39.4427 29.7695 38.6276 28.9434H37.5673C38.544 29.9332 36.9174 28.0928 36.9174 29.5942C36.9174 29.9755 37.3311 30.3361 37.2461 30.6896C38.1124 30.6896 39.2459 30.6896 39.5853 30.6896V33.9784C39.5853 34.5837 40.0754 35.0745 40.6799 35.0745H42.8689H44.752C45.5916 35.0745 46.1338 34.1577 45.71 33.432C45.2055 32.5676 44.3146 31.957 43.2742 31.8272L43.5176 29.8772C44.8331 29.0682 45.8029 27.7246 46.0696 26.169C46.4426 23.9921 45.5173 22.0263 43.9634 20.8502V18.6332H47.247C48.4511 18.6332 49.943 17.7873 50.5624 16.7533L51.7251 14.8127C52.1628 14.0823 51.6375 13.1529 50.7867 13.1529Z" fill="#FBBA3C"/>
<g filter="url(#filter0_d)">
<path d="M10.837 23.3565C10.837 23.7391 10.9327 24.0899 11.124 24.4087C11.3153 24.7116 11.411 24.9588 11.411 25.1501C11.411 25.3254 11.3631 25.4849 11.2675 25.6284C11.1878 25.7719 11.0762 25.8436 10.9327 25.8436C10.6616 25.8436 10.4384 25.6124 10.2631 25.1501C10.0877 24.6877 10 24.2015 10 23.6913C10 22.926 10.279 22.2405 10.837 21.6346C11.411 21.0288 12.1364 20.7259 13.0132 20.7259C13.6031 20.7259 14.0416 21.0129 14.3285 21.5868C14.6314 22.1448 14.7829 22.7825 14.7829 23.5C14.7829 24.2174 14.759 24.895 14.7112 25.5327C14.6793 26.1545 14.6474 26.6407 14.6155 26.9915C14.5836 27.3263 14.5198 27.8684 14.4242 28.6177C14.3285 29.3511 14.2648 29.8612 14.2329 30.1482C15.5083 30.1482 16.8475 29.5025 18.2505 28.2111C18.4418 25.9153 18.7049 24.1217 19.0397 22.8304C19.3904 21.523 19.7412 20.6063 20.0919 20.0802C20.4427 19.5541 20.8173 19.291 21.2159 19.291C21.6304 19.291 21.9652 19.4744 22.2203 19.841C22.4914 20.2077 22.6269 20.6462 22.6269 21.1563C22.6269 23.0376 21.7899 25.0704 20.1158 27.2546C20.0202 28.514 19.9724 29.6779 19.9724 30.7461C19.9724 31.7983 20.1238 32.8266 20.4267 33.831C20.7456 34.8195 20.905 35.3695 20.905 35.4811C20.905 35.6087 20.8173 35.7044 20.642 35.7681C20.4666 35.8478 20.2753 35.8877 20.068 35.8877C19.51 35.8877 19.0556 35.7442 18.7049 35.4572C18.5295 35.3137 18.386 34.8275 18.2744 33.9984C18.1628 33.1694 18.107 32.3962 18.107 31.6787C18.107 30.9454 18.1309 30.1562 18.1788 29.3112C16.7598 30.5229 15.4127 31.1526 14.1372 31.2004C14.1213 31.4236 14.1053 31.7983 14.0894 32.3244C14.0734 32.8346 14.0495 33.2172 14.0176 33.4723C13.9858 33.7115 13.922 33.9905 13.8263 34.3093C13.6669 34.8992 13.2843 35.1942 12.6784 35.1942C12.3117 35.1942 12.1284 34.8833 12.1284 34.2615C12.1284 33.6238 12.2241 32.5237 12.4154 30.9613C11.6979 30.6584 11.3392 30.1243 11.3392 29.359C11.3392 28.801 11.4827 28.3307 11.7697 27.9481C12.0566 27.5495 12.4074 27.3502 12.8219 27.3502C12.9654 25.8835 13.0371 24.7515 13.0371 23.9543C13.0371 22.5195 12.8139 21.802 12.3675 21.802C11.3472 21.802 10.837 22.3202 10.837 23.3565ZM21.8616 21.5629C21.8616 21.3238 21.8217 21.1085 21.742 20.9172C21.6783 20.7099 21.5906 20.6063 21.479 20.6063C21.0326 20.6063 20.626 22.3361 20.2593 25.7958C21.3275 24.1696 21.8616 22.7586 21.8616 21.5629ZM12.7502 28.1155C12.527 28.2749 12.4154 28.4901 12.4154 28.7612C12.4154 29.0322 12.4791 29.2554 12.6067 29.4308L12.7502 28.1155Z" fill="#634203"/>
<path d="M23.2679 23.3804C23.2679 23.0934 23.4193 22.8463 23.7223 22.639C24.0252 22.4318 24.2962 22.3282 24.5354 22.3282C24.9658 22.3282 25.181 22.5753 25.181 23.0695C25.181 23.5637 25.0535 23.9942 24.7984 24.3609C24.5433 24.7116 24.1846 24.887 23.7223 24.887C23.4193 24.887 23.2679 24.3848 23.2679 23.3804ZM23.9614 35.1942C23.3396 35.1942 22.8693 35.0666 22.5505 34.8115C22.4389 34.6999 22.3831 34.3014 22.3831 33.6158C22.3831 32.9303 22.4309 31.7903 22.5265 30.196C22.6381 28.5858 22.7338 27.7169 22.8135 27.5894C22.8932 27.4618 23.1403 27.2227 23.5549 26.8719C23.9694 26.5212 24.2882 26.3458 24.5114 26.3458C24.7506 26.3458 24.8702 26.6487 24.8702 27.2546C24.8702 27.414 24.8223 27.7249 24.7267 28.1872C24.647 28.6496 24.5513 28.9844 24.4397 29.1916C24.2324 29.7177 24.1288 31.0968 24.1288 33.3288C24.1288 33.7593 24.1766 33.9745 24.2723 33.9745C24.5433 33.9586 24.918 33.6238 25.3963 32.9701C25.8746 32.3005 26.3449 31.4476 26.8072 30.4113C27.2855 29.375 27.5725 28.8568 27.6682 28.8568C27.7798 28.8568 27.8356 28.9206 27.8356 29.0481C27.8356 29.4945 27.6044 30.204 27.142 31.1765C25.8825 33.855 24.8223 35.1942 23.9614 35.1942Z" fill="#634203"/>
<path d="M33.3791 35.1942C32.837 35.1942 32.4145 35.0746 32.1116 34.8355C31.984 34.7079 31.9203 34.3731 31.9203 33.831C31.9203 33.289 31.9442 32.5795 31.992 31.7027C31.5616 32.8506 31.1231 33.7194 30.6767 34.3093C30.2303 34.8992 29.6643 35.1942 28.9788 35.1942C28.3092 35.1942 27.7352 34.8992 27.2569 34.3093C26.7946 33.7194 26.5634 32.7788 26.5634 31.4874C26.5634 30.196 26.9221 29.0561 27.6396 28.0676C28.373 27.0792 29.3295 26.5849 30.5093 26.5849C31.0833 26.5849 31.6811 26.8081 32.3029 27.2546C32.558 24.1457 32.7892 22.3919 32.9964 21.9934C33.0921 21.818 33.3153 21.5629 33.666 21.2281C34.0327 20.8933 34.3356 20.7259 34.5748 20.7259C34.8139 20.7259 34.9335 21.1005 34.9335 21.8499C34.9335 22.7267 34.8538 23.484 34.6944 24.1217C34.2639 25.7639 33.9929 26.8081 33.8813 27.2546C33.6581 28.9764 33.5465 31.0012 33.5465 33.3288C33.5465 33.7593 33.5943 33.9745 33.6899 33.9745C33.9769 33.9586 34.3596 33.6238 34.8378 32.9701C35.3161 32.3165 35.7865 31.4715 36.2488 30.4352C36.7271 29.3829 37.0141 28.8568 37.1097 28.8568C37.2213 28.8568 37.2771 28.9206 37.2771 29.0481C37.2771 29.4945 37.046 30.204 36.5836 31.1765C35.3241 33.855 34.2559 35.1942 33.3791 35.1942ZM30.3658 27.4459C29.9354 27.4459 29.5049 27.7886 29.0744 28.4742C28.644 29.1597 28.4288 29.9569 28.4288 30.8656C28.4288 31.7585 28.5404 32.4918 28.7636 33.0658C29.0027 33.6397 29.2976 33.9267 29.6484 33.9267C30.3658 33.9267 31.1869 32.4918 32.1116 29.6221C32.1913 28.7452 32.2312 28.2271 32.2312 28.0676C31.7688 27.6531 31.147 27.4459 30.3658 27.4459Z" fill="#634203"/>
<path d="M38.0557 28.8329L39.371 28.6894C39.4985 28.6894 39.6101 28.7612 39.7058 28.9047C39.8014 29.0481 39.8492 29.1996 39.8492 29.359C39.8492 29.5185 39.7934 30.0605 39.6818 30.9852C39.5862 31.9099 39.5384 32.6433 39.5384 33.1854C39.5384 33.7115 39.5862 33.9745 39.6818 33.9745C39.9529 33.9586 40.3275 33.6238 40.8058 32.9701C41.2841 32.3005 41.7544 31.4476 42.2168 30.4113C42.6951 29.375 42.982 28.8568 43.0777 28.8568C43.1893 28.8568 43.2451 28.9206 43.2451 29.0481C43.2451 29.4945 43.0139 30.204 42.5516 31.1765C41.2921 33.855 40.2319 35.1942 39.371 35.1942C38.7492 35.1942 38.2789 35.0666 37.96 34.8115C37.8484 34.6999 37.7926 34.0064 37.7926 32.731C37.7926 31.4555 37.9281 30.3634 38.1991 29.4547C37.2744 29.4547 36.6288 29.1597 36.2621 28.5698C36.0708 28.2669 35.9751 27.9242 35.9751 27.5415C35.9751 27.1589 36.0548 26.8241 36.2142 26.5371C36.3737 26.2501 36.5969 26.1067 36.8838 26.1067C37.1868 26.1067 37.4578 26.2661 37.6969 26.5849C37.952 26.8879 38.0796 27.2306 38.0796 27.6133C38.0796 27.9959 37.968 28.3785 37.7448 28.7612C37.8085 28.809 37.9122 28.8329 38.0557 28.8329Z" fill="#634203"/>
<path d="M42.0705 32.994L42.214 30.3156C42.214 28.6097 42.2937 27.677 42.4531 27.5176C42.6126 27.3582 42.8916 27.127 43.2901 26.8241C43.7047 26.5052 43.9996 26.3458 44.175 26.3458C44.3663 26.3458 44.4859 26.3777 44.5337 26.4415C44.5815 26.5052 44.6054 26.6328 44.6054 26.8241C44.6054 27.5096 44.454 28.2032 44.1511 28.9047C43.9119 30.3714 43.7923 31.5751 43.7923 32.5157C43.7923 33.4564 43.9039 33.9267 44.1271 33.9267C44.5098 33.9267 44.9482 33.5919 45.4424 32.9223C45.9526 32.2367 46.4708 31.2323 46.9969 29.9091C47.0128 29.5583 47.0288 29.1916 47.0447 28.809C47.0607 28.4104 47.0766 28.1234 47.0925 27.9481C47.1085 27.7568 47.1165 27.6212 47.1165 27.5415C47.1324 27.4618 47.3556 27.2466 47.7861 26.8958C48.2165 26.5291 48.5434 26.3458 48.7666 26.3458C49.0057 26.3458 49.1253 26.6487 49.1253 27.2546C49.1253 27.414 49.0774 27.7249 48.9818 28.1872C48.9021 28.6496 48.8064 28.9844 48.6948 29.1916C48.5673 30.3236 48.4796 31.312 48.4318 32.157C49.9942 30.1801 50.8232 29.1358 50.9189 29.0242C51.0305 28.9126 51.1261 28.8568 51.2058 28.8568C51.3653 28.8568 51.445 28.9365 51.445 29.096C51.445 29.1916 51.4131 29.2953 51.3493 29.4069C50.8391 30.1562 49.8347 31.4715 48.3361 33.3528C48.2404 35.25 48.1767 36.5414 48.1448 37.2269C48.0651 39.2517 47.7781 40.6706 47.2839 41.4837C46.8056 42.3127 45.9446 42.7272 44.7011 42.7272C44.159 42.7272 43.6489 42.5598 43.1706 42.225C42.7082 41.9062 42.477 41.3402 42.477 40.5271C42.477 39.73 42.78 38.9089 43.3858 38.0639C44.0076 37.2189 45.1316 35.9196 46.7577 34.1658L46.9012 31.5592C46.3592 32.7549 45.8251 33.6636 45.299 34.2854C44.7728 34.8913 44.1909 35.1942 43.5532 35.1942C42.9155 35.1942 42.5089 35.0347 42.3336 34.7159C42.1582 34.397 42.0705 33.8231 42.0705 32.994ZM46.686 35.2898C44.8685 37.2508 43.9597 38.8212 43.9597 40.001C43.9597 40.5431 44.0554 40.9895 44.2467 41.3402C44.438 41.691 44.7011 41.8663 45.0359 41.8663C45.5461 41.8663 45.9048 41.5873 46.112 41.0293C46.3193 40.4713 46.4708 39.3394 46.5664 37.6335L46.686 35.2898Z" fill="#634203"/>
</g>
<g filter="url(#filter1_d)">
<path d="M56.1716 35.3956C56.093 34.739 55.9366 34.1099 55.7022 33.5082C55.4687 32.9008 54.994 31.9482 54.2781 30.6505C53.75 29.6993 53.4244 29.0935 53.3015 28.8333C53.1054 28.4206 52.9745 28.0497 52.9087 27.7207C52.8429 27.3916 52.8331 27.0645 52.8792 26.7395C52.9649 26.1359 53.2364 25.6622 53.6937 25.3186C54.1518 24.9691 54.6769 24.8364 55.2689 24.9204C55.8552 25.0036 56.3363 25.285 56.7123 25.7647C56.9978 26.1309 57.2014 26.6364 57.3231 27.2813C57.6118 26.6236 57.9861 26.1557 58.446 25.8775C58.9116 25.6002 59.397 25.4973 59.9019 25.569C60.4881 25.6522 60.956 25.9228 61.3054 26.381C61.6549 26.8391 61.7909 27.341 61.7135 27.8866C61.6435 28.3799 61.4524 28.8709 61.1403 29.3595C60.834 29.849 60.2771 30.4775 59.4694 31.2451C58.4291 32.2343 57.6803 33.0251 57.2232 33.6175C56.7728 34.2049 56.4222 34.7976 56.1716 35.3956Z" fill="#634203"/>
</g>
<defs>
<filter id="filter0_d" x="0" y="4.29102" width="61.445" height="43.4362" filterUnits="userSpaceOnUse" color-interpolation-filters="sRGB">
<feFlood flood-opacity="0" result="BackgroundImageFix"/>
<feColorMatrix in="SourceAlpha" type="matrix" values="0 0 0 0 0 0 0 0 0 0 0 0 0 0 0 0 0 0 127 0"/>
<feOffset dy="-5"/>
<feGaussianBlur stdDeviation="5"/>
<feColorMatrix type="matrix" values="0 0 0 0 0 0 0 0 0 0 0 0 0 0 0 0 0 0 0.15 0"/>
<feBlend mode="normal" in2="BackgroundImageFix" result="effect1_dropShadow"/>
<feBlend mode="normal" in="SourceGraphic" in2="effect1_dropShadow" result="shape"/>
</filter>
<filter id="filter1_d" x="42.8506" y="9.896" width="28.8839" height="30.4996" filterUnits="userSpaceOnUse" color-interpolation-filters="sRGB">
<feFlood flood-opacity="0" result="BackgroundImageFix"/>
<feColorMatrix in="SourceAlpha" type="matrix" values="0 0 0 0 0 0 0 0 0 0 0 0 0 0 0 0 0 0 127 0"/>
<feOffset dy="-5"/>
<feGaussianBlur stdDeviation="5"/>
<feColorMatrix type="matrix" values="0 0 0 0 0 0 0 0 0 0 0 0 0 0 0 0 0 0 0.15 0"/>
<feBlend mode="normal" in2="BackgroundImageFix" result="effect1_dropShadow"/>
<feBlend mode="normal" in="SourceGraphic" in2="effect1_dropShadow" result="shape"/>
</filter>
</defs>
</svg>
