<svg width="32" height="32" viewBox="0 0 32 32" fill="none" xmlns="http://www.w3.org/2000/svg">
<path d="M12.3851 31.377C12.1864 31.3778 11.9885 31.3536 11.7964 31.305C10.8929 31.0731 10.3037 30.3513 9.73458 29.6533C9.42982 29.2201 9.04831 28.8415 8.60738 28.5347C8.10183 28.3155 7.56004 28.1834 7.0068 28.1444C6.10157 28.0188 5.16637 27.8893 4.51714 27.2666C3.86791 26.6439 3.733 25.745 3.60211 24.8759C3.56137 24.3449 3.42379 23.8248 3.19563 23.3394C2.87596 22.9162 2.48159 22.5499 2.03037 22.2573C1.3033 21.711 0.552022 21.1458 0.310437 20.2779C0.0798061 19.4449 0.425752 18.6118 0.760743 17.8065C1.00785 17.315 1.16245 16.7854 1.21739 16.2422C1.16245 15.6991 1.00785 15.1695 0.760743 14.678C0.425176 13.8727 0.0780764 13.0396 0.310437 12.2066C0.552022 11.3387 1.30388 10.7735 2.03037 10.2272C2.48153 9.93448 2.87589 9.56826 3.19563 9.14509C3.42308 8.65962 3.5597 8.1395 3.59923 7.60854C3.73011 6.73952 3.86503 5.84117 4.51426 5.21791C5.16348 4.59466 6.101 4.46458 7.00507 4.33949C7.55834 4.30038 8.10013 4.16811 8.60565 3.94871C9.04658 3.64192 9.42809 3.2633 9.73285 2.83006C10.3019 2.13207 10.8912 1.41085 11.7941 1.17892C12.6636 0.957519 13.5302 1.28963 14.3697 1.61122C14.8819 1.8481 15.4337 1.99596 15.9997 2.04794C16.5653 1.9953 17.1168 1.84688 17.6285 1.60956C18.4674 1.28741 19.3346 0.955305 20.2029 1.17726C21.1064 1.40919 21.6957 2.13097 22.2647 2.82895C22.5695 3.2622 22.951 3.64081 23.392 3.9476C23.8975 4.16579 24.4391 4.29694 24.992 4.33506C25.8972 4.46071 26.833 4.59023 27.4822 5.21348C28.1314 5.83674 28.2663 6.73509 28.3972 7.60356C28.438 8.13464 28.5755 8.65472 28.8037 9.14011C29.1233 9.56352 29.5177 9.92994 29.969 10.2228C30.696 10.7691 31.4473 11.3342 31.6889 12.2016C31.9195 13.0346 31.5736 13.8677 31.2386 14.6736C30.9914 15.1651 30.8368 15.6946 30.7819 16.2378C30.8368 16.7811 30.9916 17.3107 31.2392 17.802C31.5742 18.6074 31.9212 19.4404 31.6889 20.2735C31.4473 21.1414 30.6954 21.7065 29.969 22.2528C29.5178 22.5456 29.1234 22.9118 28.8037 23.335C28.5762 23.8204 28.4396 24.3406 28.4001 24.8715C28.2692 25.7405 28.1343 26.6389 27.4851 27.2621C26.8358 27.8854 25.9001 28.0149 24.9954 28.1406C24.4422 28.1794 23.9003 28.3115 23.3948 28.5308C22.9539 28.8376 22.5724 29.2162 22.2676 29.6494C21.6985 30.3474 21.1099 31.0692 20.2064 31.3011C19.3375 31.5225 18.4703 31.1904 17.6308 30.8688C17.1181 30.6323 16.5659 30.4849 15.9997 30.4332C15.434 30.4861 14.8825 30.6347 14.3708 30.8722C13.7475 31.1578 13.074 31.329 12.3851 31.377ZM12.3845 2.21399C12.2861 2.2131 12.188 2.22464 12.0928 2.24831C11.5618 2.38448 11.1126 2.93246 10.641 3.51309C10.2509 4.06148 9.75685 4.53449 9.18453 4.90739C8.55385 5.20314 7.87083 5.38227 7.17112 5.43544C6.51436 5.44862 5.87575 5.64477 5.333 6.00003C4.96265 6.52159 4.75813 7.13522 4.74431 7.76629C4.68949 8.43803 4.50306 9.09381 4.19483 9.69916C3.80545 10.2495 3.31132 10.7242 2.7384 11.0984C2.13357 11.5523 1.56334 11.9841 1.42092 12.4916C1.37654 13.1086 1.51784 13.7247 1.82799 14.2668C2.13582 14.8866 2.31892 15.5566 2.36766 16.2417C2.31892 16.9268 2.13582 17.5968 1.82799 18.2166C1.51787 18.7586 1.37657 19.3748 1.42092 19.9917C1.56334 20.5015 2.13415 20.9327 2.7384 21.3855C3.30984 21.7599 3.80258 22.2345 4.1908 22.7842C4.49918 23.3897 4.6858 24.0457 4.74085 24.7176C4.75445 25.3486 4.959 25.9621 5.32954 26.4833C5.87239 26.8389 6.51122 27.0353 7.16824 27.0485C7.86812 27.1013 8.55137 27.2803 9.18222 27.576C9.75475 27.9488 10.249 28.4218 10.6392 28.9703C11.1126 29.5504 11.5618 30.0989 12.0916 30.2351C12.7339 30.2768 13.3752 30.141 13.9396 29.8437C14.5862 29.5482 15.2851 29.3726 15.9997 29.3262C16.7131 29.373 17.4109 29.5488 18.0563 29.8443C18.6208 30.1429 19.2631 30.2786 19.906 30.2351C20.437 30.0989 20.8862 29.5509 21.3572 28.9703C21.7476 28.4216 22.2421 27.9484 22.8148 27.5754C23.4454 27.2797 24.1285 27.1008 24.8282 27.0479C25.4854 27.0348 26.1245 26.8385 26.6675 26.4828C27.0378 25.9614 27.2423 25.348 27.2562 24.7171C27.311 24.0453 27.4974 23.3896 27.8056 22.7842C28.1946 22.2339 28.6883 21.7592 29.2609 21.3849C29.8652 20.9305 30.436 20.4993 30.5784 19.9912C30.6227 19.3744 30.4814 18.7585 30.1713 18.2166C29.8635 17.5968 29.6804 16.9268 29.6317 16.2417C29.6804 15.5566 29.8635 14.8866 30.1713 14.2668C30.4815 13.7245 30.6228 13.1082 30.5784 12.4911C30.436 11.9813 29.8658 11.5501 29.2615 11.0979C28.6897 10.7234 28.1968 10.2487 27.8085 9.6986C27.5001 9.09309 27.3135 8.43714 27.2585 7.76518C27.2439 7.13407 27.0381 6.52071 26.6663 6.00003C26.1235 5.64394 25.4844 5.44737 24.8271 5.43434C24.1274 5.38134 23.4444 5.20239 22.8136 4.90684C22.241 4.53388 21.7467 4.06067 21.3566 3.51198C20.8833 2.9319 20.4341 2.38392 19.9048 2.24776C19.2621 2.20474 18.6202 2.34041 18.0557 2.63854C17.4104 2.93339 16.7128 3.1086 15.9997 3.15497C15.2862 3.10815 14.5885 2.93237 13.943 2.63688C13.4529 2.4105 12.9256 2.26742 12.3845 2.21399Z" fill="black"/>
<path d="M15.9998 26.4641C13.8938 26.4641 11.835 25.8645 10.084 24.7413C8.33286 23.618 6.96805 22.0215 6.16211 20.1537C5.35618 18.2858 5.14531 16.2304 5.55617 14.2475C5.96703 12.2646 6.98118 10.4431 8.47036 9.01351C9.95954 7.5839 11.8569 6.61032 13.9224 6.21589C15.988 5.82146 18.129 6.0239 20.0747 6.7976C22.0204 7.5713 23.6834 8.88152 24.8534 10.5626C26.0235 12.2436 26.648 14.22 26.648 16.2418C26.6449 18.952 25.5221 21.5504 23.5258 23.4668C21.5296 25.3832 18.8229 26.4611 15.9998 26.4641ZM15.9998 7.1265C14.1218 7.1265 12.2861 7.6611 10.7246 8.6627C9.16315 9.6643 7.94615 11.0879 7.22749 12.7535C6.50883 14.4191 6.3208 16.2519 6.68717 18.0201C7.05353 19.7882 7.95785 21.4124 9.28576 22.6872C10.6137 23.962 12.3055 24.8302 14.1474 25.1819C15.9893 25.5336 17.8984 25.3531 19.6334 24.6632C21.3684 23.9733 22.8513 22.8049 23.8946 21.3059C24.938 19.8069 25.4948 18.0446 25.4948 16.2418C25.4921 13.8251 24.4908 11.5081 22.7108 9.79921C20.9307 8.09034 18.5172 7.12914 15.9998 7.1265Z" fill="black"/>
<path d="M11.8157 21.0336C11.7017 21.0335 11.5902 21.0011 11.4954 20.9402C11.4007 20.8794 11.3268 20.793 11.2831 20.6919C11.2395 20.5907 11.2281 20.4795 11.2503 20.3721C11.2726 20.2647 11.3275 20.1661 11.4081 20.0887L19.9558 11.879C20.009 11.8261 20.0726 11.784 20.143 11.755C20.2133 11.726 20.289 11.7107 20.3655 11.71C20.4421 11.7094 20.518 11.7234 20.5889 11.7512C20.6597 11.7791 20.7241 11.8202 20.7782 11.8721C20.8324 11.9241 20.8752 11.9859 20.9042 12.0539C20.9332 12.122 20.9478 12.1949 20.9471 12.2683C20.9464 12.3418 20.9305 12.4145 20.9003 12.482C20.8701 12.5495 20.8262 12.6106 20.7711 12.6617L12.2234 20.8725C12.1151 20.9759 11.9685 21.0338 11.8157 21.0336Z" fill="black"/>
<path d="M18.9405 21.2454C18.4958 21.2454 18.061 21.1188 17.6913 20.8816C17.3215 20.6444 17.0333 20.3073 16.8631 19.9128C16.6929 19.5184 16.6483 19.0843 16.7351 18.6656C16.8219 18.2468 17.036 17.8622 17.3505 17.5603C17.665 17.2584 18.0657 17.0528 18.5019 16.9695C18.938 16.8862 19.3902 16.929 19.8011 17.0924C20.2119 17.2557 20.5631 17.5324 20.8102 17.8874C21.0573 18.2424 21.1892 18.6598 21.1892 19.0867C21.1892 19.6593 20.9523 20.2083 20.5306 20.6132C20.1089 21.018 19.5369 21.2454 18.9405 21.2454ZM18.9405 18.04C18.7239 18.04 18.5121 18.1017 18.3319 18.2173C18.1518 18.3328 18.0114 18.4971 17.9284 18.6893C17.8455 18.8814 17.8238 19.0929 17.8661 19.2969C17.9084 19.5009 18.0127 19.6883 18.1659 19.8354C18.3191 19.9824 18.5143 20.0826 18.7268 20.1232C18.9393 20.1638 19.1596 20.1429 19.3598 20.0633C19.5599 19.9837 19.731 19.8489 19.8514 19.676C19.9718 19.503 20.036 19.2997 20.036 19.0917C20.036 18.8128 19.9206 18.5453 19.7152 18.3481C19.5097 18.1508 19.2311 18.04 18.9405 18.04Z" fill="black"/>
<path d="M13.0597 15.5499C12.6149 15.5499 12.1802 15.4233 11.8104 15.1861C11.4406 14.9489 11.1524 14.6117 10.9822 14.2173C10.812 13.8228 10.7675 13.3888 10.8542 12.97C10.941 12.5513 11.1552 12.1667 11.4697 11.8648C11.7841 11.5629 12.1848 11.3573 12.621 11.274C13.0572 11.1907 13.5093 11.2334 13.9202 11.3968C14.3311 11.5602 14.6823 11.8369 14.9294 12.1919C15.1765 12.5469 15.3083 12.9642 15.3083 13.3912C15.3083 13.9637 15.0714 14.5128 14.6497 14.9176C14.228 15.3224 13.6561 15.5499 13.0597 15.5499ZM13.0597 12.3445C12.843 12.3445 12.6312 12.4062 12.4511 12.5217C12.2709 12.6373 12.1305 12.8015 12.0476 12.9937C11.9647 13.1859 11.943 13.3973 11.9852 13.6013C12.0275 13.8053 12.1318 13.9927 12.2851 14.1398C12.4383 14.2869 12.6335 14.3871 12.846 14.4276C13.0585 14.4682 13.2787 14.4474 13.4789 14.3678C13.6791 14.2882 13.8502 14.1534 13.9706 13.9804C14.0909 13.8075 14.1552 13.6042 14.1552 13.3962C14.1553 13.258 14.1271 13.1211 14.0721 12.9934C14.0171 12.8656 13.9365 12.7496 13.8347 12.6518C13.733 12.554 13.6122 12.4765 13.4792 12.4235C13.3462 12.3706 13.2036 12.3434 13.0597 12.3434V12.3445Z" fill="black"/>
</svg>
